<?xml version="1.0" encoding="utf-8"?>
<svg viewBox="0 0 500 500" xmlns="http://www.w3.org/2000/svg">
  <path d="M 414.542 159.312 C 413.425 143.329 406.179 128.918 394.128 118.736 C 369.206 97.675 331.278 101.434 309.57 127.119 L 301.258 136.947 L 205.785 433.213 L 399.944 203.506 C 410.48 191.045 415.664 175.35 414.542 159.312 Z" style="fill: rgb(255, 255, 255);"/>
  <path d="M 136.361 392.581 C 124.355 392.581 114.583 402.697 114.583 415.128 C 114.583 427.558 124.355 437.675 136.361 437.675 C 148.372 437.675 158.15 427.558 158.15 415.128 C 158.15 402.697 148.372 392.581 136.361 392.581 Z" style="fill: rgb(255, 255, 255);"/>
  <path d="M 195.527 84.905 C 195.527 74.506 192.981 64.713 188.504 56.138 L 187.675 55.436 C 187.766 55.33 187.862 55.239 187.948 55.133 C 177.801 36.527 158.494 23.915 136.361 23.915 C 103.739 23.915 77.2 51.272 77.2 84.9 L 77.2 422.025 C 77.2 455.658 103.739 483.021 136.361 483.021 C 168.989 483.021 195.527 455.658 195.527 422.025 L 195.527 84.905 Z M 136.361 447.781 C 118.782 447.781 104.476 433.137 104.476 415.128 C 104.476 397.119 118.782 382.475 136.361 382.475 C 153.946 382.475 168.256 397.119 168.256 415.128 C 168.256 433.137 153.946 447.781 136.361 447.781 Z" style="fill: rgb(255, 255, 255);"/>
  <path d="M 258.676 43.258 C 238.13 36.639 215.831 42.086 200.085 57.048 C 203.653 65.608 205.639 75.022 205.639 84.905 L 205.639 400.742 L 296.275 119.458 C 306.589 87.452 289.722 53.268 258.676 43.258 Z" style="fill: rgb(255, 255, 255);"/>
</svg>